P3
# circle.ppm
10 10
16
 0  0  0	 0  0  0	 0  0  0	10 10  0	15 15  0	15 15  0  	10 10  0	 0  0  0	 0  0  0	 0  0  0
 0  0  0	 0  0  0	15 15  0	15 15  0	15 15  0	15 15  0  	15 15  0	15 15  0	 0  0  0	 0  0  0
 0  0  0	15 15  0	15 15  0	15 15  0	15 15  0	15 15  0  	15 15  0	15 15  0	15 15  0	 0  0  0
10 10  0	15 15  0	15 15  0	15 15  0	15 15  0	15 15  0  	15 15  0	15 15  0	15 15  0	10 10  0
15 15  0	15 15  0	15 15  0	15 15  0	15 15  0	15 15  0  	15 15  0	15 15  0	15 15  0	15 15  0
15 15  0	15 15  0	15 15  0	15 15  0	15 15  0	15 15  0  	15 15  0	15 15  0	15 15  0	15 15  0
10 10  0	15 15  0	15 15  0	15 15  0	15 15  0	15 15  0  	15 15  0	15 15  0	15 15  0	10 10  0
 0  0  0	15 15  0	15 15  0	15 15  0	15 15  0	15 15  0  	15 15  0	15 15  0	15 15  0	 0  0  0
 0  0  0	 0  0  0	15 15  0	15 15  0	15 15  0	15 15  0  	15 15  0	15 15  0	 0  0  0	 0  0  0
 0  0  0	 0  0  0	 0  0  0	10 10  0	15 15  0	15 15  0  	10 10  0	 0  0  0	 0  0  0	 0  0  0
